<svg width="18" height="16" fill="none" xmlns="http://www.w3.org/2000/svg"><path fill-rule="evenodd" clip-rule="evenodd" d="M17.723 15a1.951 1.951 0 01-1.729 1H2a2.004 2.004 0 01-2-1.994c-.001-.35.09-.694.264-.998l6.996-12A2.001 2.001 0 0110 .273c.305.176.558.43.733.735l6.998 12A1.955 1.955 0 0117.723 15zm-7.722-9.5a.5.5 0 00-.5-.5H8.498a.5.5 0 00-.5.5v4a.5.5 0 00.5.5h1.003a.5.5 0 00.5-.5v-4zm0 7a.5.5 0 00-.5-.5H8.498a.5.5 0 00-.5.5v1a.5.5 0 00.5.5h1.003a.5.5 0 00.5-.5v-1z" fill="#99ACB7"/></svg>