<svg width="18" height="18" fill="none" xmlns="http://www.w3.org/2000/svg"><path fill-rule="evenodd" clip-rule="evenodd" d="M9.066 8.404c-1.625 1.235-5.247 4.704-1.212 8.739a.503.503 0 01-.44.845c-.015 0-5.414-.91-5.414-6.177 0-2.363 1.366-3.725 2.74-5.095 1.518-1.514 3.047-3.04 2.276-6.1a.504.504 0 01.35-.597.498.498 0 01.25-.006c.013 0 4.5 1.004 4.421 7.61a4.035 4.035 0 00.975-2.23.503.503 0 01.617-.378.5.5 0 01.229.135 7.028 7.028 0 011.773 3.247 14.63 14.63 0 01.368 3.53 6.244 6.244 0 01-2 4.328 5.706 5.706 0 01-3.432 1.742.504.504 0 01-.48-.222.504.504 0 01.14-.692 3.371 3.371 0 001.717-2.913 2.994 2.994 0 00-1.217-2.256C9.581 11.15 9.2 9.458 9.066 8.404z" fill="#99ACB7" /></svg>
